<svg xmlns="http://www.w3.org/2000/svg" version="1.1" xmlns:xlink="http://www.w3.org/1999/xlink" xmlns:svgjs="http://svgjs.dev/svgjs" width="2000" height="843" viewBox="0 0 2000 843"><g transform="matrix(1,0,0,1,35.62866073733949,-1.3757883120875931)"><svg viewBox="0 0 396 167" data-background-color="#149fa8" preserveAspectRatio="xMidYMid meet" height="843" width="2000" xmlns="http://www.w3.org/2000/svg" xmlns:xlink="http://www.w3.org/1999/xlink"><g id="tight-bounds" transform="matrix(1,0,0,1,0.4742172178620194,0.27254643904937836)"><svg viewBox="0 0 395.52 166.45490712190124" height="166.45490712190124" width="395.52"><g><svg viewBox="0 0 477.60394316149217 200.99999999999997" height="166.45490712190124" width="395.52"><g><rect width="8.366976615162455" height="200.99999999999997" x="184.39766498194945" y="0" fill="#000000" opacity="1" stroke-width="0" stroke="transparent" fill-opacity="1" class="rect-yte-0" data-fill-palette-color="primary" rx="1%" id="yte-0" data-palette-color="#cae6d3"></rect></g><g transform="matrix(1,0,0,1,214.66772174151623,0.4999999999999858)"><svg viewBox="0 0 262.93622141997594 200" height="200" width="262.93622141997594"><g id="textblocktransform"><svg viewBox="0 0 262.93622141997594 200" height="200" width="262.93622141997594" id="textblock"><g><svg viewBox="0 0 262.93622141997594 200" height="200" width="262.93622141997594"><g transform="matrix(1,0,0,1,0,0)"><svg width="262.93622141997594" viewBox="2.2500000000000044 -37.900000000000006 109.25 80.10000000000001" height="200" data-palette-color="#cae6d3"><svg></svg><svg></svg><g class="wordmark-text-0" data-fill-palette-color="primary" id="text-0"><path d="M22.55-33.45l-0.7 4.05c-0.8-0.2-1.633-0.383-2.5-0.55v0c-0.767-0.167-1.64-0.31-2.62-0.43-0.987-0.113-2.013-0.17-3.08-0.17v0c-2.467 0-4.233 0.373-5.3 1.12-1.067 0.753-1.6 1.913-1.6 3.48v0c0.033 1.233 0.483 2.273 1.35 3.12 0.867 0.853 1.95 1.637 3.25 2.35 1.3 0.72 2.727 1.42 4.28 2.1 1.547 0.687 2.97 1.47 4.27 2.35 1.3 0.887 2.393 1.92 3.28 3.1 0.88 1.187 1.32 2.63 1.32 4.33v0c0 1.967-0.423 3.55-1.27 4.75-0.853 1.2-1.93 2.133-3.23 2.8-1.3 0.667-2.723 1.117-4.27 1.35-1.553 0.233-3.03 0.35-4.43 0.35v0c-1.333 0-2.55-0.083-3.65-0.25-1.1-0.167-2.05-0.35-2.85-0.55v0c-0.933-0.233-1.783-0.5-2.55-0.8v0l1-4.05c0.767 0.333 1.583 0.617 2.45 0.85v0c0.767 0.2 1.627 0.383 2.58 0.55 0.947 0.167 1.953 0.25 3.02 0.25v0c1.3 0 2.493-0.083 3.58-0.25 1.08-0.167 2.02-0.433 2.82-0.8 0.8-0.367 1.427-0.85 1.88-1.45 0.447-0.6 0.67-1.333 0.67-2.2v0c-0.033-1.3-0.457-2.36-1.27-3.18-0.82-0.813-1.903-1.597-3.25-2.35-1.353-0.747-2.803-1.47-4.35-2.17-1.553-0.7-2.98-1.5-4.28-2.4-1.3-0.9-2.39-1.967-3.27-3.2-0.887-1.233-1.33-2.767-1.33-4.6v0c0-1.067 0.183-2.117 0.55-3.15 0.367-1.033 0.993-1.95 1.88-2.75 0.88-0.8 2.03-1.45 3.45-1.95 1.413-0.5 3.17-0.75 5.27-0.75v0c1.2 0 2.34 0.057 3.42 0.17 1.087 0.12 2.03 0.247 2.83 0.38v0c0.933 0.167 1.817 0.35 2.65 0.55zM29.95 0v-20.6c0-1.133-0.1-2.5-0.3-4.1v0l3.75-0.5 0.55 3.15c0.9-0.667 1.783-1.25 2.65-1.75 0.867-0.5 1.8-0.933 2.8-1.3 1-0.367 2.017-0.55 3.05-0.55v0c1.667 0 2.983 0.29 3.95 0.87 0.967 0.587 1.683 1.58 2.15 2.98v0c1.367-0.967 2.793-1.85 4.28-2.65 1.48-0.8 3.02-1.2 4.62-1.2v0c1.233 0 2.283 0.157 3.15 0.47 0.867 0.32 1.567 0.847 2.1 1.58 0.533 0.733 0.917 1.7 1.15 2.9 0.233 1.2 0.35 2.7 0.35 4.5v0 16.2h-4v-15.75c0-1-0.017-1.893-0.05-2.68-0.033-0.78-0.15-1.447-0.35-2-0.2-0.547-0.523-0.97-0.97-1.27-0.453-0.3-1.097-0.45-1.93-0.45v0c-0.767 0-1.49 0.107-2.17 0.32-0.687 0.22-1.397 0.53-2.13 0.93-0.733 0.4-1.867 1.217-3.4 2.45v0 18.45h-4v-15.75c0-1-0.017-1.893-0.05-2.68-0.033-0.78-0.15-1.447-0.35-2-0.2-0.547-0.523-0.97-0.97-1.27-0.453-0.3-1.097-0.45-1.93-0.45v0c-0.867 0-1.767 0.183-2.7 0.55-0.933 0.367-1.817 0.8-2.65 1.3-0.833 0.5-1.7 1.083-2.6 1.75v0 18.55zM85.25-5.85v-5.7c-0.667 0.033-1.3 0.067-1.9 0.1-0.6 0.033-1.19 0.073-1.77 0.12-0.587 0.053-1.113 0.113-1.58 0.18v0c-2.4 0.3-4.1 0.823-5.1 1.57-1 0.753-1.5 1.83-1.5 3.23v0c0 1.167 0.36 2.04 1.08 2.62 0.713 0.587 1.653 0.88 2.82 0.88v0c1.6 0 3.027-0.277 4.28-0.83 1.247-0.547 2.47-1.27 3.67-2.17zM85.7 0.4l-0.5-2.75c-1.567 0.9-3.023 1.623-4.37 2.17-1.353 0.553-2.813 0.83-4.38 0.83v0c-2.233 0-4.007-0.543-5.32-1.63-1.32-1.08-1.98-2.87-1.98-5.37v0c0-1.3 0.333-2.433 1-3.4 0.667-0.967 1.543-1.777 2.63-2.43 1.08-0.647 2.303-1.153 3.67-1.52 1.367-0.367 2.767-0.6 4.2-0.7v0c0.6-0.067 1.383-0.127 2.35-0.18 0.967-0.047 1.717-0.087 2.25-0.12v0c0-1.167-0.033-2.207-0.1-3.12-0.067-0.92-0.267-1.707-0.6-2.36-0.333-0.647-0.823-1.137-1.47-1.47-0.653-0.333-1.58-0.5-2.78-0.5v0c-0.967 0-1.9 0.057-2.8 0.17-0.9 0.12-1.7 0.247-2.4 0.38v0c-0.833 0.167-1.6 0.35-2.3 0.55v0l-0.8-3.45c0.833-0.2 1.733-0.383 2.7-0.55v0c0.833-0.167 1.8-0.31 2.9-0.43 1.1-0.113 2.283-0.17 3.55-0.17v0c1.7 0 3.077 0.25 4.13 0.75 1.047 0.5 1.863 1.173 2.45 2.02 0.58 0.853 0.98 1.82 1.2 2.9 0.213 1.087 0.32 2.23 0.32 3.43v0 12c0 0.467 0.01 0.957 0.03 1.47 0.013 0.52 0.047 1.03 0.1 1.53 0.047 0.5 0.103 1.017 0.17 1.55v0zM96.3 0v-37.45l4-0.45v37.9zM107.5 0v-37.45l4-0.45v37.9z" fill="#000000" fill-rule="nonzero" stroke="none" stroke-width="1" stroke-linecap="butt" stroke-linejoin="miter" stroke-miterlimit="10" stroke-dasharray="" stroke-dashoffset="0" font-family="none" font-weight="none" font-size="none" text-anchor="none" style="mix-blend-mode: normal" data-fill-palette-color="primary" opacity="1"></path><path transform="translate(0,41.55)" d="M4.4 0v-34.1h9.1c3.6 0 6.21 0.667 7.83 2 1.613 1.333 2.42 3.367 2.42 6.1v0c0 1.267-0.173 2.367-0.52 3.3-0.353 0.933-0.747 1.717-1.18 2.35v0c-0.5 0.733-1.05 1.367-1.65 1.9v0c0.8 0.3 1.55 0.683 2.25 1.15 0.7 0.467 1.317 1.033 1.85 1.7 0.533 0.667 0.96 1.457 1.28 2.37 0.313 0.92 0.47 1.997 0.47 3.23v0c0 1.367-0.183 2.657-0.55 3.87-0.367 1.22-0.983 2.28-1.85 3.18-0.867 0.9-2.017 1.617-3.45 2.15-1.433 0.533-3.217 0.8-5.35 0.8v0zM8.6-30.35v11.05h8.35c0.467-0.367 0.883-0.85 1.25-1.45v0c0.333-0.5 0.633-1.127 0.9-1.88 0.267-0.747 0.4-1.653 0.4-2.72v0c0-1.967-0.507-3.293-1.52-3.98-1.02-0.68-2.447-1.02-4.28-1.02v0zM8.6-15.8v12.05h6.8c2.2 0 3.85-0.567 4.95-1.7 1.1-1.133 1.65-2.65 1.65-4.55v0c0-0.833-0.107-1.6-0.32-2.3-0.22-0.7-0.597-1.31-1.13-1.83-0.533-0.513-1.25-0.92-2.15-1.22-0.9-0.3-2.017-0.45-3.35-0.45v0zM32.1 0v-25.2l4-0.45v25.65zM31.45-32.35v0c0-0.767 0.26-1.407 0.78-1.92 0.513-0.52 1.153-0.78 1.92-0.78v0c0.8 0 1.473 0.26 2.02 0.78 0.553 0.513 0.83 1.153 0.83 1.92v0c0 0.767-0.277 1.407-0.83 1.92-0.547 0.52-1.22 0.78-2.02 0.78v0c-0.767 0-1.407-0.26-1.92-0.78-0.52-0.513-0.78-1.153-0.78-1.92zM45.15-32.15l4-0.5v7.5h7.25v3.25h-7.25v13.35c0 1.1 0.027 2.017 0.08 2.75 0.047 0.733 0.153 1.317 0.32 1.75 0.167 0.433 0.4 0.74 0.7 0.92 0.3 0.187 0.683 0.28 1.15 0.28v0c1.267-0.033 2.733-0.5 4.4-1.4v0l1.2 3.05c-1.1 0.733-2.123 1.227-3.07 1.48-0.953 0.247-1.897 0.37-2.83 0.37v0c-2.2 0-3.74-0.627-4.62-1.88-0.887-1.247-1.33-3.32-1.33-6.22v0-14.45h-4.6v-3.25h4.6zM79.15-3.95l0.75 3.35c-0.767 0.233-1.557 0.433-2.37 0.6-0.82 0.167-1.72 0.317-2.7 0.45-0.987 0.133-2.013 0.2-3.08 0.2v0c-1.667 0-3.217-0.233-4.65-0.7-1.433-0.467-2.683-1.217-3.75-2.25-1.067-1.033-1.907-2.377-2.52-4.03-0.62-1.647-0.93-3.67-0.93-6.07v0c0-2.167 0.3-4.077 0.9-5.73 0.6-1.647 1.427-3.03 2.48-4.15 1.047-1.113 2.28-1.953 3.7-2.52 1.413-0.567 2.953-0.85 4.62-0.85v0c1.633 0 3.05 0.317 4.25 0.95 1.2 0.633 2.193 1.49 2.98 2.57 0.78 1.087 1.363 2.357 1.75 3.81 0.38 1.447 0.57 2.97 0.57 4.57v0l-0.75 2.2h-16.15c0 1.033 0.133 2.067 0.4 3.1 0.267 1.033 0.727 1.967 1.38 2.8 0.647 0.833 1.497 1.507 2.55 2.02 1.047 0.52 2.353 0.78 3.92 0.78v0c1 0 1.917-0.06 2.75-0.18 0.833-0.113 1.56-0.247 2.18-0.4 0.613-0.147 1.187-0.32 1.72-0.52zM64.4-14.75h12.6c0-0.233-0.05-0.75-0.15-1.55-0.1-0.8-0.333-1.633-0.7-2.5-0.367-0.867-0.933-1.643-1.7-2.33-0.767-0.68-1.783-1.02-3.05-1.02v0c-1.4 0-2.55 0.29-3.45 0.87-0.9 0.587-1.617 1.28-2.15 2.08-0.533 0.8-0.9 1.617-1.1 2.45-0.2 0.833-0.3 1.5-0.3 2zM100.9-24.6l-0.7 3.55c-1.4-0.433-2.643-0.727-3.73-0.88-1.08-0.147-2.07-0.22-2.97-0.22v0c-1.167 0-2.14 0.283-2.92 0.85-0.787 0.567-1.18 1.3-1.18 2.2v0c0.033 0.8 0.383 1.483 1.05 2.05 0.667 0.567 1.443 1.073 2.33 1.52 0.88 0.453 1.86 0.947 2.94 1.48 1.087 0.533 2.107 1.133 3.06 1.8 0.947 0.667 1.72 1.467 2.32 2.4 0.6 0.933 0.917 2.05 0.95 3.35v0c-0.033 1.4-0.34 2.557-0.92 3.47-0.587 0.92-1.337 1.653-2.25 2.2-0.92 0.553-1.913 0.94-2.98 1.16-1.067 0.213-2.067 0.32-3 0.32v0c-1.2 0-2.443-0.067-3.73-0.2-1.28-0.133-2.653-0.417-4.12-0.85v0l0.75-3.6c1.5 0.4 2.867 0.69 4.1 0.87 1.233 0.187 2.25 0.28 3.05 0.28v0c0.6 0 1.19-0.067 1.77-0.2 0.587-0.133 1.113-0.327 1.58-0.58 0.467-0.247 0.84-0.57 1.12-0.97 0.287-0.4 0.43-0.85 0.43-1.35v0c-0.033-0.933-0.35-1.727-0.95-2.38-0.6-0.647-1.373-1.23-2.32-1.75-0.953-0.513-1.97-1.03-3.05-1.55-1.087-0.513-2.107-1.113-3.06-1.8-0.947-0.68-1.737-1.497-2.37-2.45-0.633-0.947-0.95-2.12-0.95-3.52v0c0-1 0.257-1.893 0.77-2.68 0.52-0.78 1.187-1.43 2-1.95 0.82-0.513 1.723-0.913 2.71-1.2 0.98-0.28 1.937-0.42 2.87-0.42v0c0.967 0 2.05 0.073 3.25 0.22 1.2 0.153 2.583 0.43 4.15 0.83z" fill="#000000" fill-rule="nonzero" stroke="none" stroke-width="1" stroke-linecap="butt" stroke-linejoin="miter" stroke-miterlimit="10" stroke-dasharray="" stroke-dashoffset="0" font-family="none" font-weight="none" font-size="none" text-anchor="none" style="mix-blend-mode: normal" data-fill-palette-color="primary" opacity="1"></path></g></svg></g></svg></g></svg></g></svg></g><g transform="matrix(1,0,0,1,0,4.178845552620217)"><svg viewBox="0 0 162.49458483754512 192.64230889475954" height="192.64230889475954" width="162.49458483754512"><g><svg xmlns="http://www.w3.org/2000/svg" xmlns:xlink="http://www.w3.org/1999/xlink" version="1.1" x="0" y="0" viewBox="3.872 0.5338863270091984 41.22298664505439 48.8711136729908" enable-background="new 0 0 50 50" xml:space="preserve" height="192.64230889475954" width="162.49458483754512" class="icon-icon-0" data-fill-palette-color="accent" id="icon-0"><g fill="#06303e" data-fill-palette-color="accent"><path fill="#000000" d="M19.906 20.441A3.315 3.315 0 0 0 16.595 17.129C14.768 17.129 13.284 18.615 13.284 20.441S14.768 23.752 16.595 23.752A3.315 3.315 0 0 0 19.906 20.441M16.595 21.399A0.96 0.96 0 0 1 16.595 19.48C17.123 19.48 17.555 19.912 17.555 20.44A0.963 0.963 0 0 1 16.595 21.399" data-fill-palette-color="accent"></path><path fill="#000000" d="M27.846 13.436A5.484 5.484 0 0 0 22.368 18.914 5.483 5.483 0 0 0 27.846 24.393 5.484 5.484 0 0 0 33.324 18.914 5.49 5.49 0 0 0 27.846 13.436M27.846 22.042A3.13 3.13 0 0 1 24.719 18.915 3.13 3.13 0 0 1 27.846 15.789 3.134 3.134 0 0 1 30.974 18.915 3.134 3.134 0 0 1 27.846 22.042" data-fill-palette-color="accent"></path><path fill="#000000" d="M22.462 26.136A4.23 4.23 0 0 0 18.234 30.365 4.23 4.23 0 0 0 22.462 34.592 4.233 4.233 0 0 0 26.69 30.365 4.235 4.235 0 0 0 22.462 26.136M22.462 32.244A1.877 1.877 0 0 1 22.462 28.489 1.877 1.877 0 0 1 22.462 32.244" data-fill-palette-color="accent"></path><path fill="#000000" d="M37.274 4.875C32.715 1.377 26.644-0.142 20.964 0.815 15.452 1.733 10.437 4.895 7.201 9.487A21 21 0 0 0 3.928 16.788L3.872 17.02 3.914 17.254C4.093 18.278 4.914 19.332 5.638 20.259 5.893 20.585 6.13 20.884 6.29 21.136L24.365 49.405 29.74 41.196C29.919 40.943 30.248 40.471 30.059 39.844 29.861 39.185 29.27 38.953 28.837 38.781 27.672 38.323 28.152 36.679 28.247 36.365L28.304 36.012C28.32 35.732 28.519 33.272 30.45 33.272 30.912 33.272 31.458 33.391 32.07 33.63L34.974 34.757 33.538 31.991A2.72 2.72 0 0 1 33.461 29.629 3.29 3.29 0 0 1 35.518 27.791C35.586 27.778 35.673 27.778 35.77 27.778 36 27.784 36.244 27.788 36.497 27.8 36.775 27.814 37.053 27.827 37.291 27.827 37.689 27.827 38.522 27.827 39.035 27.047L44.728 18.381C45.66 16.973 44.728 14.666 42.934 11.444A21.4 21.4 0 0 0 37.274 4.875M37.255 25.483C37.061 25.483 36.834 25.473 36.613 25.46 35.89 25.426 35.275 25.419 34.879 25.536A5.6 5.6 0 0 0 31.297 28.715 5.2 5.2 0 0 0 30.886 30.944C27.214 30.635 26.041 34.114 25.979 35.77 25.577 36.995 25.412 39.421 27.299 40.63L24.388 45.081 10.21 22.905C10.774 15.367 17.026 9.51 24.613 9.51 32.202 9.51 38.458 15.367 38.998 22.835zM42.766 17.096L40.909 19.923C39.105 12.559 32.47 7.156 24.61 7.156 16.774 7.156 10.148 12.531 8.306 19.934L8.269 19.874A15 15 0 0 0 7.49 18.817C7.1 18.319 6.482 17.522 6.284 17.035A18.7 18.7 0 0 1 9.122 10.843C11.997 6.758 16.454 3.949 21.349 3.133 26.395 2.285 31.792 3.633 35.842 6.74 37.893 8.313 39.631 10.336 40.988 12.792 42.772 15.996 42.804 16.912 42.766 17.096" data-fill-palette-color="accent"></path></g></svg></g></svg></g></svg></g><defs></defs></svg><rect width="395.52" height="166.45490712190124" fill="none" stroke="none" visibility="hidden"></rect></g></svg></g></svg>