<?xml version="1.0" encoding="UTF-8" standalone="no"?>
<svg
   version="1.1"
   width="2000"
   height="843"
   viewBox="0 0 2000 843"
   id="svg630"
   sodipodi:docname="logo-black.svg"
   inkscape:version="1.1.2 (0a00cf5339, 2022-02-04)"
   xmlns:inkscape="http://www.inkscape.org/namespaces/inkscape"
   xmlns:sodipodi="http://sodipodi.sourceforge.net/DTD/sodipodi-0.dtd"
   xmlns="http://www.w3.org/2000/svg"
   xmlns:svg="http://www.w3.org/2000/svg">
  <defs
     id="defs634" />
  <sodipodi:namedview
     id="namedview632"
     pagecolor="#ffffff"
     bordercolor="#666666"
     borderopacity="1.0"
     inkscape:pageshadow="2"
     inkscape:pageopacity="0.0"
     inkscape:pagecheckerboard="0"
     showgrid="false"
     inkscape:zoom="0.388"
     inkscape:cx="1315.7216"
     inkscape:cy="527.06186"
     inkscape:window-width="1850"
     inkscape:window-height="1009"
     inkscape:window-x="0"
     inkscape:window-y="0"
     inkscape:window-maximized="1"
     inkscape:current-layer="svg630" />
  <g
     transform="matrix(0.9734767,0,0,0.96583585,35.641239,-2.6442161)"
     id="g628">
    <svg
       viewBox="0 0 396 167"
       data-background-color="#149fa8"
       preserveAspectRatio="xMidYMid meet"
       height="843"
       width="2000"
       version="1.1"
       id="svg626">
      <g
         id="tight-bounds"
         transform="translate(0.47421722,0.27254644)">
        <svg
           viewBox="0 0 395.52 166.45491"
           height="166.45491"
           width="395.51999"
           version="1.1"
           id="svg621">
          <g
             id="g617">
            <svg
               viewBox="0 0 477.60394 201"
               height="166.45491"
               width="395.51999"
               version="1.1"
               id="svg615">
              <g
                 id="g573">
                <rect
                   width="8.3669767"
                   height="201"
                   x="184.39766"
                   y="0"
                   fill="#000000"
                   opacity="1"
                   stroke-width="0"
                   stroke="transparent"
                   fill-opacity="1"
                   class="rect-yte-0"
                   data-fill-palette-color="primary"
                   rx="1%"
                   id="yte-0"
                   data-palette-color="#cae6d3" />
              </g>
              <g
                 transform="translate(214.66772,0.5)"
                 id="g596">
                <svg
                   viewBox="0 0 262.93622 200"
                   height="200"
                   width="262.93622"
                   version="1.1"
                   id="svg594">
                  <g
                     id="textblocktransform">
                    <svg
                       viewBox="0 0 262.93622 200"
                       height="200"
                       width="262.93622"
                       id="textblock"
                       version="1.1">
                      <g
                         id="g590">
                        <svg
                           viewBox="0 0 262.93622 200"
                           height="200"
                           width="262.93622"
                           version="1.1"
                           id="svg588">
                          <g
                             id="g586">
                            <svg
                               width="262.93622"
                               viewBox="2.25 -37.9 109.25 80.1"
                               height="200"
                               data-palette-color="#cae6d3"
                               version="1.1"
                               id="svg584">
                              <svg
                                 version="1.1"
                                 id="svg575"
                                 width="100%"
                                 height="100%" />
                              <svg
                                 version="1.1"
                                 id="svg577"
                                 width="100%"
                                 height="100%" />
                              <g
                                 class="wordmark-text-0"
                                 data-fill-palette-color="primary"
                                 id="text-0">
                                <path
                                   d="m 22.55,-33.45 -0.7,4.05 c -0.8,-0.2 -1.633,-0.383 -2.5,-0.55 v 0 c -0.767,-0.167 -1.64,-0.31 -2.62,-0.43 -0.987,-0.113 -2.013,-0.17 -3.08,-0.17 v 0 c -2.467,0 -4.233,0.373 -5.3,1.12 -1.067,0.753 -1.6,1.913 -1.6,3.48 v 0 c 0.033,1.233 0.483,2.273 1.35,3.12 0.867,0.853 1.95,1.637 3.25,2.35 1.3,0.72 2.727,1.42 4.28,2.1 1.547,0.687 2.97,1.47 4.27,2.35 1.3,0.887 2.393,1.92 3.28,3.1 0.88,1.187 1.32,2.63 1.32,4.33 v 0 c 0,1.967 -0.423,3.55 -1.27,4.75 -0.853,1.2 -1.93,2.133 -3.23,2.8 -1.3,0.667 -2.723,1.117 -4.27,1.35 -1.553,0.233 -3.03,0.35 -4.43,0.35 v 0 C 9.967,0.65 8.75,0.567 7.65,0.4 6.55,0.233 5.6,0.05 4.8,-0.15 v 0 C 3.867,-0.383 3.017,-0.65 2.25,-0.95 v 0 l 1,-4.05 c 0.767,0.333 1.583,0.617 2.45,0.85 v 0 c 0.767,0.2 1.627,0.383 2.58,0.55 0.947,0.167 1.953,0.25 3.02,0.25 v 0 c 1.3,0 2.493,-0.083 3.58,-0.25 1.08,-0.167 2.02,-0.433 2.82,-0.8 0.8,-0.367 1.427,-0.85 1.88,-1.45 0.447,-0.6 0.67,-1.333 0.67,-2.2 v 0 c -0.033,-1.3 -0.457,-2.36 -1.27,-3.18 -0.82,-0.813 -1.903,-1.597 -3.25,-2.35 -1.353,-0.747 -2.803,-1.47 -4.35,-2.17 -1.553,-0.7 -2.98,-1.5 -4.28,-2.4 -1.3,-0.9 -2.39,-1.967 -3.27,-3.2 -0.887,-1.233 -1.33,-2.767 -1.33,-4.6 v 0 c 0,-1.067 0.183,-2.117 0.55,-3.15 0.367,-1.033 0.993,-1.95 1.88,-2.75 0.88,-0.8 2.03,-1.45 3.45,-1.95 1.413,-0.5 3.17,-0.75 5.27,-0.75 v 0 c 1.2,0 2.34,0.057 3.42,0.17 1.087,0.12 2.03,0.247 2.83,0.38 v 0 c 0.933,0.167 1.817,0.35 2.65,0.55 z M 29.95,0 v -20.6 c 0,-1.133 -0.1,-2.5 -0.3,-4.1 v 0 l 3.75,-0.5 0.55,3.15 c 0.9,-0.667 1.783,-1.25 2.65,-1.75 0.867,-0.5 1.8,-0.933 2.8,-1.3 1,-0.367 2.017,-0.55 3.05,-0.55 v 0 c 1.667,0 2.983,0.29 3.95,0.87 0.967,0.587 1.683,1.58 2.15,2.98 v 0 c 1.367,-0.967 2.793,-1.85 4.28,-2.65 1.48,-0.8 3.02,-1.2 4.62,-1.2 v 0 c 1.233,0 2.283,0.157 3.15,0.47 0.867,0.32 1.567,0.847 2.1,1.58 0.533,0.733 0.917,1.7 1.15,2.9 0.233,1.2 0.35,2.7 0.35,4.5 v 0 V 0 h -4 v -15.75 c 0,-1 -0.017,-1.893 -0.05,-2.68 -0.033,-0.78 -0.15,-1.447 -0.35,-2 -0.2,-0.547 -0.523,-0.97 -0.97,-1.27 -0.453,-0.3 -1.097,-0.45 -1.93,-0.45 v 0 c -0.767,0 -1.49,0.107 -2.17,0.32 -0.687,0.22 -1.397,0.53 -2.13,0.93 -0.733,0.4 -1.867,1.217 -3.4,2.45 v 0 V 0 h -4 v -15.75 c 0,-1 -0.017,-1.893 -0.05,-2.68 -0.033,-0.78 -0.15,-1.447 -0.35,-2 -0.2,-0.547 -0.523,-0.97 -0.97,-1.27 -0.453,-0.3 -1.097,-0.45 -1.93,-0.45 v 0 c -0.867,0 -1.767,0.183 -2.7,0.55 -0.933,0.367 -1.817,0.8 -2.65,1.3 -0.833,0.5 -1.7,1.083 -2.6,1.75 v 0 V 0 Z m 55.3,-5.85 v -5.7 c -0.667,0.033 -1.3,0.067 -1.9,0.1 -0.6,0.033 -1.19,0.073 -1.77,0.12 -0.587,0.053 -1.113,0.113 -1.58,0.18 v 0 c -2.4,0.3 -4.1,0.823 -5.1,1.57 -1,0.753 -1.5,1.83 -1.5,3.23 v 0 c 0,1.167 0.36,2.04 1.08,2.62 0.713,0.587 1.653,0.88 2.82,0.88 v 0 c 1.6,0 3.027,-0.277 4.28,-0.83 1.247,-0.547 2.47,-1.27 3.67,-2.17 z M 85.7,0.4 85.2,-2.35 c -1.567,0.9 -3.023,1.623 -4.37,2.17 -1.353,0.553 -2.813,0.83 -4.38,0.83 v 0 c -2.233,0 -4.007,-0.543 -5.32,-1.63 -1.32,-1.08 -1.98,-2.87 -1.98,-5.37 v 0 c 0,-1.3 0.333,-2.433 1,-3.4 0.667,-0.967 1.543,-1.777 2.63,-2.43 1.08,-0.647 2.303,-1.153 3.67,-1.52 1.367,-0.367 2.767,-0.6 4.2,-0.7 v 0 c 0.6,-0.067 1.383,-0.127 2.35,-0.18 0.967,-0.047 1.717,-0.087 2.25,-0.12 v 0 c 0,-1.167 -0.033,-2.207 -0.1,-3.12 -0.067,-0.92 -0.267,-1.707 -0.6,-2.36 -0.333,-0.647 -0.823,-1.137 -1.47,-1.47 -0.653,-0.333 -1.58,-0.5 -2.78,-0.5 v 0 c -0.967,0 -1.9,0.057 -2.8,0.17 -0.9,0.12 -1.7,0.247 -2.4,0.38 v 0 c -0.833,0.167 -1.6,0.35 -2.3,0.55 v 0 L 72,-24.5 c 0.833,-0.2 1.733,-0.383 2.7,-0.55 v 0 c 0.833,-0.167 1.8,-0.31 2.9,-0.43 1.1,-0.113 2.283,-0.17 3.55,-0.17 v 0 c 1.7,0 3.077,0.25 4.13,0.75 1.047,0.5 1.863,1.173 2.45,2.02 0.58,0.853 0.98,1.82 1.2,2.9 0.213,1.087 0.32,2.23 0.32,3.43 v 0 12 c 0,0.467 0.01,0.957 0.03,1.47 0.013,0.52 0.047,1.03 0.1,1.53 0.047,0.5 0.103,1.017 0.17,1.55 V 0 Z M 96.3,0 v -37.45 l 4,-0.45 V 0 Z m 11.2,0 v -37.45 l 4,-0.45 V 0 Z"
                                   fill="#000000"
                                   fill-rule="nonzero"
                                   stroke="none"
                                   stroke-width="1"
                                   stroke-linecap="butt"
                                   stroke-linejoin="miter"
                                   stroke-miterlimit="10"
                                   stroke-dasharray="none"
                                   stroke-dashoffset="0"
                                   font-family="none"
                                   font-weight="none"
                                   font-size="none"
                                   text-anchor="none"
                                   style="mix-blend-mode:normal"
                                   data-fill-palette-color="primary"
                                   opacity="1"
                                   id="path579" />
                                <path
                                   transform="translate(0,41.55)"
                                   d="m 4.4,0 v -34.1 h 9.1 c 3.6,0 6.21,0.667 7.83,2 1.613,1.333 2.42,3.367 2.42,6.1 v 0 c 0,1.267 -0.173,2.367 -0.52,3.3 -0.353,0.933 -0.747,1.717 -1.18,2.35 v 0 c -0.5,0.733 -1.05,1.367 -1.65,1.9 v 0 c 0.8,0.3 1.55,0.683 2.25,1.15 0.7,0.467 1.317,1.033 1.85,1.7 0.533,0.667 0.96,1.457 1.28,2.37 0.313,0.92 0.47,1.997 0.47,3.23 v 0 c 0,1.367 -0.183,2.657 -0.55,3.87 -0.367,1.22 -0.983,2.28 -1.85,3.18 -0.867,0.9 -2.017,1.617 -3.45,2.15 C 18.967,-0.267 17.183,0 15.05,0 v 0 z m 4.2,-30.35 v 11.05 h 8.35 c 0.467,-0.367 0.883,-0.85 1.25,-1.45 v 0 c 0.333,-0.5 0.633,-1.127 0.9,-1.88 0.267,-0.747 0.4,-1.653 0.4,-2.72 v 0 c 0,-1.967 -0.507,-3.293 -1.52,-3.98 -1.02,-0.68 -2.447,-1.02 -4.28,-1.02 v 0 z m 0,14.55 v 12.05 h 6.8 c 2.2,0 3.85,-0.567 4.95,-1.7 C 21.45,-6.583 22,-8.1 22,-10 v 0 c 0,-0.833 -0.107,-1.6 -0.32,-2.3 -0.22,-0.7 -0.597,-1.31 -1.13,-1.83 -0.533,-0.513 -1.25,-0.92 -2.15,-1.22 -0.9,-0.3 -2.017,-0.45 -3.35,-0.45 v 0 z M 32.1,0 v -25.2 l 4,-0.45 V 0 Z m -0.65,-32.35 v 0 c 0,-0.767 0.26,-1.407 0.78,-1.92 0.513,-0.52 1.153,-0.78 1.92,-0.78 v 0 c 0.8,0 1.473,0.26 2.02,0.78 0.553,0.513 0.83,1.153 0.83,1.92 v 0 c 0,0.767 -0.277,1.407 -0.83,1.92 -0.547,0.52 -1.22,0.78 -2.02,0.78 v 0 c -0.767,0 -1.407,-0.26 -1.92,-0.78 -0.52,-0.513 -0.78,-1.153 -0.78,-1.92 z m 13.7,0.2 4,-0.5 v 7.5 h 7.25 v 3.25 h -7.25 v 13.35 c 0,1.1 0.027,2.017 0.08,2.75 0.047,0.733 0.153,1.317 0.32,1.75 0.167,0.433 0.4,0.74 0.7,0.92 0.3,0.187 0.683,0.28 1.15,0.28 v 0 c 1.267,-0.033 2.733,-0.5 4.4,-1.4 v 0 L 57,-1.2 c -1.1,0.733 -2.123,1.227 -3.07,1.48 -0.953,0.247 -1.897,0.37 -2.83,0.37 v 0 c -2.2,0 -3.74,-0.627 -4.62,-1.88 -0.887,-1.247 -1.33,-3.32 -1.33,-6.22 v 0 -14.45 h -4.6 v -3.25 h 4.6 z m 34,28.2 0.75,3.35 c -0.767,0.233 -1.557,0.433 -2.37,0.6 -0.82,0.167 -1.72,0.317 -2.7,0.45 -0.987,0.133 -2.013,0.2 -3.08,0.2 v 0 C 70.083,0.65 68.533,0.417 67.1,-0.05 65.667,-0.517 64.417,-1.267 63.35,-2.3 62.283,-3.333 61.443,-4.677 60.83,-6.33 60.21,-7.977 59.9,-10 59.9,-12.4 v 0 c 0,-2.167 0.3,-4.077 0.9,-5.73 0.6,-1.647 1.427,-3.03 2.48,-4.15 1.047,-1.113 2.28,-1.953 3.7,-2.52 1.413,-0.567 2.953,-0.85 4.62,-0.85 v 0 c 1.633,0 3.05,0.317 4.25,0.95 1.2,0.633 2.193,1.49 2.98,2.57 0.78,1.087 1.363,2.357 1.75,3.81 0.38,1.447 0.57,2.97 0.57,4.57 v 0 l -0.75,2.2 H 64.25 c 0,1.033 0.133,2.067 0.4,3.1 0.267,1.033 0.727,1.967 1.38,2.8 0.647,0.833 1.497,1.507 2.55,2.02 1.047,0.52 2.353,0.78 3.92,0.78 v 0 c 1,0 1.917,-0.06 2.75,-0.18 0.833,-0.113 1.56,-0.247 2.18,-0.4 0.613,-0.147 1.187,-0.32 1.72,-0.52 z M 64.4,-14.75 H 77 c 0,-0.233 -0.05,-0.75 -0.15,-1.55 -0.1,-0.8 -0.333,-1.633 -0.7,-2.5 -0.367,-0.867 -0.933,-1.643 -1.7,-2.33 -0.767,-0.68 -1.783,-1.02 -3.05,-1.02 v 0 c -1.4,0 -2.55,0.29 -3.45,0.87 -0.9,0.587 -1.617,1.28 -2.15,2.08 -0.533,0.8 -0.9,1.617 -1.1,2.45 -0.2,0.833 -0.3,1.5 -0.3,2 z m 36.5,-9.85 -0.7,3.55 c -1.4,-0.433 -2.643,-0.727 -3.73,-0.88 -1.08,-0.147 -2.07,-0.22 -2.97,-0.22 v 0 c -1.167,0 -2.14,0.283 -2.92,0.85 -0.787,0.567 -1.18,1.3 -1.18,2.2 v 0 c 0.033,0.8 0.383,1.483 1.05,2.05 0.667,0.567 1.443,1.073 2.33,1.52 0.88,0.453 1.86,0.947 2.94,1.48 1.087,0.533 2.107,1.133 3.06,1.8 0.947,0.667 1.72,1.467 2.32,2.4 0.6,0.933 0.917,2.05 0.95,3.35 v 0 c -0.033,1.4 -0.34,2.557 -0.92,3.47 -0.587,0.92 -1.337,1.653 -2.25,2.2 -0.92,0.553 -1.913,0.94 -2.98,1.16 -1.067,0.213 -2.067,0.32 -3,0.32 v 0 C 91.7,0.65 90.457,0.583 89.17,0.45 87.89,0.317 86.517,0.033 85.05,-0.4 v 0 L 85.8,-4 c 1.5,0.4 2.867,0.69 4.1,0.87 1.233,0.187 2.25,0.28 3.05,0.28 v 0 c 0.6,0 1.19,-0.067 1.77,-0.2 0.587,-0.133 1.113,-0.327 1.58,-0.58 0.467,-0.247 0.84,-0.57 1.12,-0.97 0.287,-0.4 0.43,-0.85 0.43,-1.35 v 0 c -0.033,-0.933 -0.35,-1.727 -0.95,-2.38 -0.6,-0.647 -1.373,-1.23 -2.32,-1.75 -0.953,-0.513 -1.97,-1.03 -3.05,-1.55 -1.087,-0.513 -2.107,-1.113 -3.06,-1.8 -0.947,-0.68 -1.737,-1.497 -2.37,-2.45 -0.633,-0.947 -0.95,-2.12 -0.95,-3.52 v 0 c 0,-1 0.257,-1.893 0.77,-2.68 0.52,-0.78 1.187,-1.43 2,-1.95 0.82,-0.513 1.723,-0.913 2.71,-1.2 0.98,-0.28 1.937,-0.42 2.87,-0.42 v 0 c 0.967,0 2.05,0.073 3.25,0.22 1.2,0.153 2.583,0.43 4.15,0.83 z"
                                   fill="#000000"
                                   fill-rule="nonzero"
                                   stroke="none"
                                   stroke-width="1"
                                   stroke-linecap="butt"
                                   stroke-linejoin="miter"
                                   stroke-miterlimit="10"
                                   stroke-dasharray="none"
                                   stroke-dashoffset="0"
                                   font-family="none"
                                   font-weight="none"
                                   font-size="none"
                                   text-anchor="none"
                                   style="mix-blend-mode:normal"
                                   data-fill-palette-color="primary"
                                   opacity="1"
                                   id="path581" />
                              </g>
                            </svg>
                          </g>
                        </svg>
                      </g>
                    </svg>
                  </g>
                </svg>
              </g>
              <g
                 transform="translate(0,4.1788456)"
                 id="g613">
                <svg
                   viewBox="0 0 162.49458 192.64231"
                   height="192.6423"
                   width="162.49458"
                   version="1.1"
                   id="svg611">
                  <g
                     id="g609">
                    <svg
                       version="1.1"
                       x="0"
                       y="0"
                       viewBox="3.872 0.53388633 41.222987 48.871114"
                       enable-background="new 0 0 50 50"
                       xml:space="preserve"
                       height="192.6423"
                       width="162.49458"
                       class="icon-icon-0"
                       data-fill-palette-color="accent"
                       id="icon-0"><g
                         fill="#06303e"
                         data-fill-palette-color="accent"
                         id="g606"><path
                           fill="#000000"
                           d="m 19.906,20.441 a 3.315,3.315 0 0 0 -3.311,-3.312 c -1.827,0 -3.311,1.486 -3.311,3.312 0,1.826 1.484,3.311 3.311,3.311 a 3.315,3.315 0 0 0 3.311,-3.311 m -3.311,0.958 a 0.96,0.96 0 0 1 0,-1.919 c 0.528,0 0.96,0.432 0.96,0.96 a 0.963,0.963 0 0 1 -0.96,0.959"
                           data-fill-palette-color="accent"
                           id="path598" /><path
                           fill="#000000"
                           d="m 27.846,13.436 a 5.484,5.484 0 0 0 -5.478,5.478 5.483,5.483 0 0 0 5.478,5.479 5.484,5.484 0 0 0 5.478,-5.479 5.49,5.49 0 0 0 -5.478,-5.478 m 0,8.606 a 3.13,3.13 0 0 1 -3.127,-3.127 3.13,3.13 0 0 1 3.127,-3.126 3.134,3.134 0 0 1 3.128,3.126 3.134,3.134 0 0 1 -3.128,3.127"
                           data-fill-palette-color="accent"
                           id="path600" /><path
                           fill="#000000"
                           d="m 22.462,26.136 a 4.23,4.23 0 0 0 -4.228,4.229 4.23,4.23 0 0 0 4.228,4.227 4.233,4.233 0 0 0 4.228,-4.227 4.235,4.235 0 0 0 -4.228,-4.229 m 0,6.108 a 1.8775,1.8775 0 0 1 0,-3.755 1.8775,1.8775 0 0 1 0,3.755"
                           data-fill-palette-color="accent"
                           id="path602" /><path
                           fill="#000000"
                           d="M 37.274,4.875 C 32.715,1.377 26.644,-0.142 20.964,0.815 15.452,1.733 10.437,4.895 7.201,9.487 a 21,21 0 0 0 -3.273,7.301 l -0.056,0.232 0.042,0.234 c 0.179,1.024 1,2.078 1.724,3.005 0.255,0.326 0.492,0.625 0.652,0.877 l 18.075,28.269 5.375,-8.209 c 0.179,-0.253 0.508,-0.725 0.319,-1.352 -0.198,-0.659 -0.789,-0.891 -1.222,-1.063 -1.165,-0.458 -0.685,-2.102 -0.59,-2.416 l 0.057,-0.353 c 0.016,-0.28 0.215,-2.74 2.146,-2.74 0.462,0 1.008,0.119 1.62,0.358 l 2.904,1.127 -1.436,-2.766 a 2.72,2.72 0 0 1 -0.077,-2.362 3.29,3.29 0 0 1 2.057,-1.838 c 0.068,-0.013 0.155,-0.013 0.252,-0.013 0.23,0.006 0.474,0.01 0.727,0.022 0.278,0.014 0.556,0.027 0.794,0.027 0.398,0 1.231,0 1.744,-0.78 l 5.693,-8.666 c 0.932,-1.408 0,-3.715 -1.794,-6.937 a 21.4,21.4 0 0 0 -5.66,-6.569 m -0.019,20.608 c -0.194,0 -0.421,-0.01 -0.642,-0.023 -0.723,-0.034 -1.338,-0.041 -1.734,0.076 a 5.6,5.6 0 0 0 -3.582,3.179 5.2,5.2 0 0 0 -0.411,2.229 c -3.672,-0.309 -4.845,3.17 -4.907,4.826 -0.402,1.225 -0.567,3.651 1.32,4.86 L 24.388,45.081 10.21,22.905 C 10.774,15.367 17.026,9.51 24.613,9.51 c 7.589,0 13.845,5.857 14.385,13.325 z m 5.511,-8.387 -1.857,2.827 C 39.105,12.559 32.47,7.156 24.61,7.156 16.774,7.156 10.148,12.531 8.306,19.934 L 8.269,19.874 A 15,15 0 0 0 7.49,18.817 C 7.1,18.319 6.482,17.522 6.284,17.035 a 18.7,18.7 0 0 1 2.838,-6.192 c 2.875,-4.085 7.332,-6.894 12.227,-7.71 5.046,-0.848 10.443,0.5 14.493,3.607 2.051,1.573 3.789,3.596 5.146,6.052 1.784,3.204 1.816,4.12 1.778,4.304"
                           data-fill-palette-color="accent"
                           id="path604" /></g></svg>
                  </g>
                </svg>
              </g>
            </svg>
          </g>
          <defs
             id="defs619" />
        </svg>
        <rect
           width="395.51999"
           height="166.45491"
           fill="none"
           stroke="none"
           visibility="hidden"
           id="rect623"
           x="0"
           y="0" />
      </g>
    </svg>
  </g>
</svg>
